<svg width="12" height="11" viewBox="0 0 12 11" fill="none" xmlns="http://www.w3.org/2000/svg">
<path d="M5.5932 0.244895C5.6688 0.0949474 5.8272 0 6 0C6.1734 0 6.3312 0.0949474 6.4068 0.244895C6.9912 1.40163 7.9968 3.39437 7.9968 3.39437C7.9968 3.39437 10.2834 3.69774 11.61 3.87432C11.8518 3.90616 12 4.10358 12 4.30679C12 4.41679 11.9568 4.52853 11.8614 4.61711C10.8954 5.50753 9.2322 7.04347 9.2322 7.04347C9.2322 7.04347 9.6384 9.22437 9.8736 10.4894C9.9234 10.7568 9.7086 11 9.4284 11C9.3552 11 9.282 10.9832 9.2154 10.9485C8.0346 10.3417 6 9.29789 6 9.29789C6 9.29789 3.9654 10.3417 2.7846 10.9485C2.718 10.9832 2.6442 11 2.571 11C2.292 11 2.076 10.7563 2.1264 10.4894C2.3622 9.22437 2.7684 7.04347 2.7684 7.04347C2.7684 7.04347 1.1046 5.50753 0.1392 4.61711C0.0432001 4.52853 0 4.41679 0 4.30737C0 4.10358 0.1494 3.90558 0.3906 3.87432C1.7172 3.69774 4.0032 3.39437 4.0032 3.39437C4.0032 3.39437 5.0094 1.40163 5.5932 0.244895Z" fill="black"/>
</svg>
