<svg width="20" height="18" viewBox="0 0 20 18" fill="none" xmlns="http://www.w3.org/2000/svg">
<path d="M14.5756 13.8855C13.6397 13.8854 12.8783 13.1241 12.8783 12.1882V9.36947C12.8783 8.43359 13.6397 7.67222 14.5756 7.67222H18.9981C19.0249 7.67222 19.0516 7.67303 19.078 7.67422V4.86632C19.078 4.14354 18.4921 3.55762 17.7693 3.55762H1.54337C0.820545 3.55757 0.234619 4.1435 0.234619 4.86628V16.6913C0.234619 17.4141 0.820545 18.0001 1.54337 18.0001H17.7693C18.4921 18.0001 19.078 17.4142 19.078 16.6913V13.8834C19.0516 13.8847 19.0249 13.8855 18.9981 13.8855H14.5756Z" fill="#686868"/>
<path d="M18.9982 8.60205H14.5756C14.1519 8.60205 13.8083 8.94557 13.8083 9.3693V12.188C13.8083 12.6117 14.1519 12.9553 14.5756 12.9553H18.9982C19.4219 12.9553 19.7654 12.6118 19.7654 12.188V9.3693C19.7654 8.94553 19.4219 8.60205 18.9982 8.60205ZM16.0995 11.886C15.4879 11.886 14.9921 11.3902 14.9921 10.7786C14.9921 10.167 15.4879 9.67121 16.0995 9.67121C16.7111 9.67121 17.2069 10.167 17.2069 10.7786C17.2069 11.3902 16.7111 11.886 16.0995 11.886Z" fill="#686868"/>
<path d="M15.4907 1.16025C15.1979 0.274034 14.2421 -0.207025 13.3559 0.0857672L6.70728 2.28231H15.8614L15.4907 1.16025Z" fill="#686868"/>
</svg>
