<svg width="24" height="24" viewBox="0 0 24 24" fill="none" xmlns="http://www.w3.org/2000/svg">
<path d="M12.002 2.00488C17.52 2.00488 22 6.48488 22 12.0019C22 17.5199 17.52 21.9999 12.002 21.9999C6.485 21.9999 2.005 17.5199 2.005 12.0019C2.005 6.48488 6.485 2.00488 12.002 2.00488ZM12.002 10.0049C11.588 10.0049 11.252 10.3409 11.252 10.7549V16.2549C11.252 16.6689 11.588 17.0049 12.002 17.0049C12.416 17.0049 12.752 16.6689 12.752 16.2549V10.7549C12.752 10.3409 12.416 10.0049 12.002 10.0049ZM12 7.00488C11.448 7.00488 11 7.45288 11 8.00488C11 8.55688 11.448 9.00488 12 9.00488C12.552 9.00488 13 8.55688 13 8.00488C13 7.45288 12.552 7.00488 12 7.00488Z" fill="#696969"/>
</svg>
