<svg width="27" height="24" viewBox="0 0 27 24" fill="none" xmlns="http://www.w3.org/2000/svg">
<path d="M24.1094 0H23.3128H21.9918H19.8741H18.1211H8.31448H7.16825H5.0506H3.6996H2.93295C1.76341 0 0.815308 0.948103 0.815308 2.11765C0.815308 9.53144 0.815308 14.4671 0.815308 21.8805C0.815308 23.0501 1.76341 24 2.93295 24H3.6996H5.0506H7.16825H8.31448H18.1211H19.8741H21.9918H23.3128H24.1094C25.279 24 26.2271 23.0519 26.2271 21.8824V2.11764C26.2271 0.948101 25.279 0 24.1094 0ZM5.0506 18.5775C5.0506 19.1623 4.57655 19.6364 3.99178 19.6364C3.40701 19.6364 2.93295 19.1623 2.93295 18.5775V18.5134C2.93295 17.9286 3.40701 17.4545 3.99178 17.4545C4.57655 17.4545 5.0506 17.9286 5.0506 18.5134V18.5775ZM5.0506 14.2139C5.0506 14.7987 4.57655 15.2727 3.99178 15.2727C3.40701 15.2727 2.93295 14.7987 2.93295 14.2139V14.1497C2.93295 13.565 3.40701 13.0909 3.99178 13.0909C4.57655 13.0909 5.0506 13.565 5.0506 14.1497V14.2139ZM5.0506 9.85027C5.0506 10.435 4.57655 10.9091 3.99178 10.9091C3.40701 10.9091 2.93295 10.435 2.93295 9.85027V9.7861C2.93295 9.20132 3.40701 8.72727 3.99178 8.72727C4.57655 8.72727 5.0506 9.20132 5.0506 9.7861V9.85027ZM5.0506 5.48663C5.0506 6.0714 4.57655 6.54545 3.99178 6.54545C3.40701 6.54545 2.93295 6.0714 2.93295 5.48663V5.42246C2.93295 4.83769 3.40701 4.36364 3.99178 4.36364C4.57655 4.36364 5.0506 4.83769 5.0506 5.42246V5.48663ZM14.1873 13.5519C12.9718 14.3032 11.4035 13.429 11.4035 12C11.4035 10.571 12.9718 9.69677 14.1873 10.4481C15.3408 11.1612 15.3408 12.8388 14.1873 13.5519ZM24.1094 18.5775C24.1094 19.1623 23.6354 19.6364 23.0506 19.6364C22.4658 19.6364 21.9918 19.1623 21.9918 18.5775V18.5134C21.9918 17.9286 22.4658 17.4545 23.0506 17.4545C23.6354 17.4545 24.1094 17.9286 24.1094 18.5134V18.5775ZM24.1094 14.2139C24.1094 14.7987 23.6354 15.2727 23.0506 15.2727C22.4658 15.2727 21.9918 14.7987 21.9918 14.2139V14.1497C21.9918 13.565 22.4658 13.0909 23.0506 13.0909C23.6354 13.0909 24.1094 13.565 24.1094 14.1497V14.2139ZM24.1094 9.85027C24.1094 10.435 23.6354 10.9091 23.0506 10.9091C22.4658 10.9091 21.9918 10.435 21.9918 9.85027V9.7861C21.9918 9.20132 22.4658 8.72727 23.0506 8.72727C23.6354 8.72727 24.1094 9.20132 24.1094 9.7861V9.85027ZM24.1094 5.48663C24.1094 6.0714 23.6354 6.54545 23.0506 6.54545C22.4658 6.54545 21.9918 6.0714 21.9918 5.48663V5.42246C21.9918 4.83769 22.4658 4.36364 23.0506 4.36364C23.6354 4.36364 24.1094 4.83769 24.1094 5.42246V5.48663Z" fill="black"/>
</svg>
