<svg width="24" height="24" viewBox="0 0 24 24" fill="none" xmlns="http://www.w3.org/2000/svg">
<path d="M24 13.616V10.384C22.349 9.797 21.307 9.632 20.781 8.365C20.254 7.094 20.881 6.23 21.628 4.657L19.343 2.372C17.782 3.114 16.91 3.747 15.636 3.219C14.367 2.693 14.2 1.643 13.616 0H10.384C9.802 1.635 9.635 2.692 8.365 3.219C7.094 3.747 6.232 3.121 4.657 2.372L2.372 4.657C3.117 6.225 3.747 7.091 3.219 8.364C2.692 9.635 1.635 9.802 0 10.384V13.616C1.632 14.196 2.692 14.365 3.219 15.635C3.749 16.917 3.105 17.801 2.372 19.342L4.657 21.628C6.219 20.885 7.091 20.253 8.364 20.781C9.634 21.307 9.801 22.36 10.384 24H13.616C14.198 22.364 14.365 21.31 15.643 20.778H15.644C16.906 20.254 17.764 20.879 19.342 21.629L21.627 19.343C20.884 17.78 20.252 16.91 20.779 15.637C21.306 14.366 22.367 14.197 24 13.616ZM12 17C9.238 17 7 14.761 7 12C7 9.239 9.238 7 12 7C14.762 7 17 9.239 17 12C17 14.761 14.762 17 12 17ZM15 12C15 13.654 13.654 15 12 15C10.346 15 9 13.654 9 12C9 10.346 10.346 9 12 9C13.654 9 15 10.346 15 12Z" fill="black"/>
</svg>
