<svg width="31" height="26" viewBox="0 0 31 26" fill="none" xmlns="http://www.w3.org/2000/svg">
<path d="M23.25 3.875L20.6667 0H10.3333L7.75 3.875H0V25.8333H31V3.875H23.25ZM28.4167 12.9167H23.148C23.8984 17.7656 20.1616 21.9583 15.5 21.9583C10.8345 21.9583 7.10287 17.763 7.85204 12.9167H2.58333V6.45833H9.13208L11.7154 2.58333H19.2833L21.8666 6.45833H28.4167V12.9167ZM15.5 9.04167C12.6028 9.04167 10.3333 11.2763 10.3333 14.1295C10.3333 17.0216 12.6506 19.375 15.5 19.375C18.3494 19.375 20.6667 17.0216 20.6667 14.1295C20.6667 11.2763 18.3972 9.04167 15.5 9.04167ZM14.9368 13.6335C14.1205 14.2833 13.0497 14.2794 12.5447 13.6258C12.0409 12.9722 12.2941 11.9156 13.1104 11.2659C13.9267 10.6175 14.9975 10.6214 15.5013 11.275C16.0063 11.9273 15.7532 12.9838 14.9368 13.6335Z" fill="black"/>
</svg>
