<svg width="16" height="16" viewBox="0 0 16 16" fill="none" xmlns="http://www.w3.org/2000/svg">
<path d="M3.33333 4.66667C5.174 4.66667 6.66667 6.15933 6.66667 8C6.66667 9.84067 5.174 11.3333 3.33333 11.3333C1.49267 11.3333 0 9.84067 0 8C0 6.15933 1.49267 4.66667 3.33333 4.66667ZM10.748 12.71C10.6993 12.9107 10.6667 13.1173 10.6667 13.3333C10.6667 14.806 11.8607 16 13.3333 16C14.806 16 16 14.806 16 13.3333C16 11.8607 14.806 10.6667 13.3333 10.6667C12.5567 10.6667 11.864 11.004 11.3767 11.534L7.718 9.58267C7.56467 10.0067 7.352 10.402 7.08933 10.7587L10.748 12.71ZM16 2.66667C16 1.194 14.806 0 13.3333 0C11.8607 0 10.6667 1.194 10.6667 2.66667C10.6667 2.88267 10.6993 3.08933 10.748 3.29L7.08933 5.24133C7.35267 5.598 7.56467 5.99267 7.718 6.41733L11.3767 4.466C11.864 4.996 12.5567 5.33333 13.3333 5.33333C14.806 5.33333 16 4.13933 16 2.66667Z" fill="black"/>
</svg>
