<svg width="18" height="18" viewBox="0 0 18 18" fill="none" xmlns="http://www.w3.org/2000/svg">
<path d="M16 17.25C16 16.848 15.644 16.5 15.25 16.5C12.689 16.5 3.311 16.5 0.75 16.5C0.356 16.5 0 16.848 0 17.25C0 17.652 0.356 18 0.75 18H15.25C15.644 18 16 17.652 16 17.25ZM3.977 10.167C2.643 14.083 2.497 14.399 2.497 14.754C2.497 15.281 2.957 15.503 3.246 15.503C3.598 15.503 3.914 15.366 7.82 14.01L3.977 10.167ZM5.037 9.106L8.883 12.952L17.707 4.138C17.902 3.943 18 3.687 18 3.431C18 3.176 17.902 2.92 17.707 2.725C17.015 2.034 15.965 0.984 15.272 0.293C15.077 0.098 14.821 0 14.565 0C14.311 0 14.055 0.098 13.859 0.293L5.037 9.106Z" fill="#D9D9D9"/>
</svg>
