<svg width="13" height="12" viewBox="0 0 13 12" fill="none" xmlns="http://www.w3.org/2000/svg">
<path d="M6.5 0C3.06692 0 0 2.28908 0 5.42046C0 6.53088 0.400292 7.62125 1.10879 8.46733C1.13858 9.45858 0.554667 10.881 0.02925 11.9167C1.43867 11.6621 3.44229 11.0998 4.35067 10.543C9.3535 11.7601 13 8.69863 13 5.42046C13 2.27229 9.91196 0 6.5 0ZM3.79167 6.22917C3.34263 6.22917 2.97917 5.86571 2.97917 5.41667C2.97917 4.96763 3.34263 4.60417 3.79167 4.60417C4.24071 4.60417 4.60417 4.96763 4.60417 5.41667C4.60417 5.86571 4.24071 6.22917 3.79167 6.22917ZM6.5 6.22917C6.05096 6.22917 5.6875 5.86571 5.6875 5.41667C5.6875 4.96763 6.05096 4.60417 6.5 4.60417C6.94904 4.60417 7.3125 4.96763 7.3125 5.41667C7.3125 5.86571 6.94904 6.22917 6.5 6.22917ZM9.20833 6.22917C8.75983 6.22917 8.39583 5.86571 8.39583 5.41667C8.39583 4.96763 8.75983 4.60417 9.20833 4.60417C9.65738 4.60417 10.0208 4.96763 10.0208 5.41667C10.0208 5.86571 9.65738 6.22917 9.20833 6.22917Z" fill="black"/>
</svg>
