<svg width="18" height="18" viewBox="0 0 18 18" fill="none" xmlns="http://www.w3.org/2000/svg">
<path d="M3.72525 11.25C1.668 11.25 0 9.5715 0 7.5C0 5.42925 1.668 3.75 3.72525 3.75H7.5V11.25H3.72525ZM9.00525 16.8563C8.61525 16.5382 8.32875 16.1108 8.184 15.6285L7.32075 12.7582H3.477L4.90575 17.1705C5.06625 17.6647 5.52675 18 6.0465 18H8.62575C8.89425 18 9.1335 17.8312 9.2235 17.5785C9.3135 17.3258 9.23475 17.0438 9.02625 16.8743L9.00525 16.8563ZM9 3.75V11.25C11.373 11.6318 14.3707 12.744 18 15V0C14.277 2.31375 11.343 3.3765 9 3.75Z" fill="#686868"/>
</svg>
