<svg width="18" height="19" viewBox="0 0 18 19" fill="none" xmlns="http://www.w3.org/2000/svg">
<path d="M7.038 2.92917C6.09382 4.46263 6.51845 7.06721 8.20309 10.074C8.964 11.4293 8.77336 12.4648 8.47964 13.0942C7.67618 14.8184 5.47282 15.31 3.141 15.8302C1.53409 16.1896 1.63636 16.5189 1.63636 19H0.00409091L0 18.0175C0 16.0225 0.162818 14.8707 2.60018 14.326C5.35336 13.7109 8.07218 13.1599 6.76473 10.8284C2.89227 3.91796 5.66018 0 9.81818 0C12.5354 0 14.7027 1.67596 14.7027 4.88221C14.7027 7.69658 13.1081 10.2917 12.753 11.0833H11.0225C11.3433 9.86733 13.0672 7.62692 13.0672 4.87508C13.0672 0.795625 8.26691 0.928625 7.038 2.92917ZM18 15.0417H15.5455V12.6667H13.9091V15.0417H11.4545V16.625H13.9091V19H15.5455V16.625H18V15.0417Z" fill="#686868"/>
</svg>
